<svg xmlns="http://www.w3.org/2000/svg" viewBox="0 0 48 48" width="96px" height="96px"><path fill="#8D6E63" d="M26 15.651C26 14.612 26 10 28.613 10 31.846 10 34 13.721 34 16.097 34 17.879 32.768 21 29.848 21 26.615 21 26 16.691 26 15.651zM34.286 22c-1.356 0-2.566.884-3.474 2.059C29.906 25.233 29 26.408 29 27.142c0 1.178.756 1.471 1.512 2.354C31.416 30.673 32.323 32 33.831 32c3.029 0 3.482-2.358 3.935-4.123C38.523 25.233 37.463 22 34.286 22zM17.535 27.645C18.415 26.767 19 26.474 19 25.156c0-.878-1.172-2.194-2.051-3.517C16.072 20.317 15.044 19 13.726 19c-3.076 0-4.247 3.521-3.515 6.597.439 2.194 2.198 4.393 4.54 4.393C16.365 30.136 16.365 28.67 17.535 27.645zM20.246 20C23.51 20 24 15.919 24 14.934 24 13.946 24 10 20.899 10 17.794 10 16 13.523 16 15.075 16 16.764 17.141 20 20.246 20zM23.637 27c-1.983 0-2.55.277-3.686 3.337C18.535 34.086 14 33.946 14 37.416 14 39.504 16.126 42 18.535 42c2.127 0 3.261-.832 4.818-.832 1.562 0 2.27.695 4.394.695 3.261 0 4.253-2.498 4.253-4.169 0-2.501-4.253-4.164-4.961-7.219C26.756 28.526 26.047 27 23.637 27z"/><g><path fill="#6D4C41" d="M28.654 12c3.346 0 5.34 3.996 5.34 3.996C33.937 13.617 31.802 10 28.613 10 26 10 26 14.612 26 15.651c0 .063.002.138.008.224C26.087 13.289 28 12 28.654 12zM34.286 22c-1.356 0-2.566.884-3.474 2.059C29.906 25.233 29 26.408 29 27.142c0 1.178.756 1.471 1.512 2.354.165.215.331.433.5.648C31.009 30.096 31 30.045 31 30c-.082-.079-.719-1.844.045-2.813.236-.463.92-1.35 1.35-1.906C33.023 24.467 33.713 24 34.286 24c.747 0 1.07.314 1.248.551 1.333 1.318 1.505 4.892 1.525 5.529.343-.705.526-1.5.706-2.203C38.523 25.233 37.463 22 34.286 22zM12.637 21.518C12.92 21.16 13.255 21 13.724 21c1.241 0 4.92 3.475 5.246 3.957-.148-.871-1.205-2.09-2.021-3.317C16.072 20.317 15.044 19 13.726 19c-3.076 0-4.247 3.521-3.515 6.597.236 1.181.864 2.352 1.75 3.191C11.795 27.814 11.2 23.697 12.637 21.518zM20.899 12c.908 0 3.089 1.654 3.099 2.991 0-.019.001-.042.001-.058C24 13.946 24 10 20.899 10 17.794 10 16 13.523 16 15.075c0 .372.06.821.179 1.293C16.726 14.974 18.504 12 20.899 12zM21.827 31.033C22.405 29.461 22.837 29 23.479 29c.752 0 1.325 0 1.58 1.763l.013.083.019.082C26 35 31 35 31.99 37.959c.006-.09.01-.179.01-.265 0-2.501-4.253-4.164-4.961-7.219C26.756 28.526 26.047 27 23.637 27c-1.983 0-2.55.277-3.686 3.337-1.38 3.651-5.707 3.624-5.93 6.825C15 35 20 36 21.827 31.033z"/></g><g><path fill="#4E342E" d="M36.449 20.977c.439.432 1.176 1.154 1.176.143 0-1.009-.883-2.734-1.176-2.734-.297 0-.738.72-1.184 1.869C35.119 20.977 36.152 20.688 36.449 20.977zM27.529 8.312c.59.287 1.477.575 1.033-.287-.443-1.007-1.916-2.157-2.211-2.013-.294.145-.441 1.006-.294 2.156C26.205 8.887 27.089 8.168 27.529 8.312zM13.246 17.588c.44-.143 1.325.433 1.177-.431 0-1.151-.295-2.013-.59-2.157-.294 0-1.472 1.294-1.767 2.445C11.771 18.307 12.509 17.877 13.246 17.588zM21.578 8.312c.44-.144 1.178.575 1.325-.144.147-1.15.147-2.012-.147-2.156-.294-.145-1.767 1.006-2.357 2.013C19.957 8.887 20.989 8.456 21.578 8.312z"/></g></svg>